# xmcd
#
# Track frame offsets: 
#        150
#        16401
#        34540
#        45888
#        60995
#        76396
#        89464
#        102525
#        119755
#        138778
#        152077
#        162631
#
# Disc length: 2366 seconds
#
# Revision: 0
# Processed by: cddbd v1.5.2PL0 Copyright (c) Steve Scherf et al.
# Submitted via: ExactAudioCopy v0.99pb5
#
DISCID=92093c0c
DTITLE=Mr Plow - Joyful In Song We Are
DYEAR=2011
DGENRE=Blues
TTITLE0=Tear Down The Bridge
TTITLE1=Mr Plow's Inferno
TTITLE2=Hallelujah! Hare Krishna!
TTITLE3=La Muerta Solitaria De Hector Velasquez
TTITLE4=The Wrong Man
TTITLE5=I Am The Boss Man
TTITLE6=Typhus
TTITLE7=Thank You Mr Ford
TTITLE8=Three Tier Wedding Cake
TTITLE9=Running Scared
TTITLE10=Silver Birds
TTITLE11=Muhamad's Atom Bomb
EXTD=
EXTT0=
EXTT1=
EXTT2=
EXTT3=
EXTT4=
EXTT5=
EXTT6=
EXTT7=
EXTT8=
EXTT9=
EXTT10=
EXTT11=
PLAYORDER=
